<svg width="200" height="32" viewBox="0 0 200 32" fill="none" xmlns="http://www.w3.org/2000/svg">
<g clip-path="url(#clip0_806_2299)">
<path d="M91.2773 16.3046L92.3482 8.57578H88.7147L87.6438 16.3046H91.2773Z" fill="white"/>
<path d="M48.9378 4.7304L189.457 4.69233L190.146 -0.333313H34.2127C23.733 -0.333313 15.8159 6.90056 15.8159 15.8097C15.8159 24.7187 23.733 31.9526 34.2127 31.9526H44.2717L44.8072 28.0692C39.0701 27.2696 34.7864 21.216 35.6661 15.0482C36.5076 9.18494 41.9004 4.7304 48.9378 4.7304Z" fill="white"/>
<path d="M182.037 8.57578H171.481L168.192 31.9526H174.273L175.344 24.2238H177.486L181.311 31.9526H188.119L183.797 23.5766C186.818 22.5105 188.96 20.0738 189.457 16.533C190.184 11.4313 187.086 8.57578 182.037 8.57578ZM183.453 16.533C183.185 18.2463 182.037 19.3504 179.857 19.3504H176.033L176.836 13.7156H180.661C182.841 13.7156 183.682 14.8198 183.453 16.533Z" fill="white"/>
<path d="M137.327 8.57578H131.169L127.88 31.9526H143.637L144.364 26.6605H134.764L137.327 8.57578Z" fill="white"/>
<path d="M146.429 31.9526H163.22L163.947 26.6605H153.199L153.773 22.6247H163.602L164.329 17.4849H154.5L155.035 13.8299H165.782L166.509 8.57578H149.719L146.429 31.9526Z" fill="white"/>
<path d="M67.5642 8.57578H57.5052L54.2159 31.9526H65.0016C69.8972 31.9526 73.11 29.6302 73.7219 25.4041C74.1044 22.777 72.804 20.6069 70.6622 19.8835C72.498 19.2743 74.1426 17.4468 74.5251 14.934C75.0988 10.7459 72.4598 8.57578 67.5642 8.57578ZM67.9084 24.6807C67.7171 26.0132 66.608 26.927 64.8869 26.927H60.7562L61.4064 22.3963H65.5371C67.2582 22.3963 68.0996 23.272 67.9084 24.6807ZM68.6351 15.6954C68.4438 17.1422 67.3729 17.8275 65.5753 17.8275H62.0566L62.6685 13.6014H66.1873C67.9849 13.6014 68.8263 14.2487 68.6351 15.6954Z" fill="white"/>
<path d="M118.777 17.4468H110.63L111.892 8.57578H105.735L102.445 31.9526H108.603L109.904 22.7009H118.05L116.75 31.9526H122.908L126.197 8.57578H120.039L118.777 17.4468Z" fill="white"/>
<path d="M92.7689 21.8633C92.31 25.1756 90.5124 26.8889 87.988 26.8889C85.4255 26.8889 84.0869 25.1756 84.5458 21.8633L86.4199 8.57578H80.3004L78.3498 22.3963C77.4319 28.8306 80.9888 32.3334 87.1849 32.3334C93.3809 32.3334 97.894 28.8306 98.8119 22.4344L100.763 8.57578H94.643L92.7689 21.8633Z" fill="white"/>
</g>
<defs>
<clipPath id="clip0_806_2299">
<rect width="174" height="32" fill="white" transform="translate(16)"/>
</clipPath>
</defs>
</svg>
